# xmcd
#
# Track frame offsets:
#	150
#	17875
#	29267
#	48505
#	65365
#	83272
#	96340
#	119015
#	138810
#	160035
#	176500
#	188760
#	205640
#	223835
#
# Disc length: 3211 seconds
#
# Revision: 1
# Processed by: cddbd v1.5.1PL0 Copyright (c) Steve Scherf et al.
# Submitted via: audiograbber 1.83.01
#
DISCID=b80c890e
DTITLE=Flink - Net Ech
DYEAR=2001
DGENRE=R&B
TTITLE0=Net Ech
TTITLE1=Vrindschap
TTITLE2=Gedachte aan de Maas
TTITLE3='t Kloeester
TTITLE4=Gezellige daag
TTITLE5=Rimpels van de herfs
TTITLE6=Drok, drok, drok
TTITLE7=Spaanse Kannepee
TTITLE8=Wandele door de stad
TTITLE9=Luustere
TTITLE10=Heej komme
TTITLE11=Vanaaf morge
TTITLE12=Dobbelstein
TTITLE13=Zomer vandaag
EXTD=
EXTT0=
EXTT1=
EXTT2=
EXTT3=
EXTT4=
EXTT5=
EXTT6=
EXTT7=
EXTT8=
EXTT9=
EXTT10=
EXTT11=
EXTT12=
EXTT13=
PLAYORDER=
